<?xml version="1.0" encoding="UTF-8"?><svg id="Logo_board" xmlns="http://www.w3.org/2000/svg" xmlns:xlink="http://www.w3.org/1999/xlink" viewBox="0 0 256 256"><defs><style>.cls-1{fill:url(#linear-gradient);}</style><linearGradient id="linear-gradient" x1="0" y1="128" x2="255.39" y2="128" gradientUnits="userSpaceOnUse"><stop offset="0" stop-color="#64ea74"/><stop offset=".66" stop-color="#338bf4"/><stop offset="1" stop-color="#0daeea"/></linearGradient><symbol id="Logo" viewBox="0 0 255.39 256"><path class="cls-1" d="m97.4,78.22h0c6.16,2.52,13.2-.44,15.71-6.61,2.52-6.16-.44-13.2-6.61-15.71h0c-6.16-2.52-13.2.44-15.71,6.61h0c-2.52,6.16.44,13.2,6.61,15.71Zm-21.58,155.68c-5.85,2.46-8.61,9.2-6.14,15.06,2.46,5.85,9.2,8.61,15.06,6.14,5.85-2.46,8.61-9.2,6.14-15.06-2.46-5.85-9.2-8.61-15.06-6.14Zm104.85-.55h0c-5.88-2.4-12.59.42-14.99,6.3h0c-2.4,5.88.42,12.59,6.3,14.99,5.88,2.4,12.59-.42,14.99-6.3,2.4-5.88-.42-12.59-6.3-14.99ZM74.72,23.26h0c5.88,2.4,12.59-.42,14.99-6.3h0c2.4-5.88-.42-12.59-6.3-14.99h0c-5.88-2.4-12.59.42-14.99,6.3h0c-2.4,5.88.42,12.59,6.3,14.99Zm164.33,67.06c5.88,2.4,12.59-.42,14.99-6.3,2.4-5.88-.42-12.59-6.3-14.99-5.88-2.4-12.59.42-14.99,6.3-2.4,5.88.42,12.59,6.3,14.99ZM16.35,166.29c-5.88-2.4-12.59.42-14.99,6.3-2.4,5.88.42,12.59,6.3,14.99h0c5.88,2.4,12.59-.42,14.99-6.3h0c2.4-5.88-.42-12.59-6.3-14.99ZM.9,85.34c2.46,5.85,9.2,8.61,15.06,6.14,5.85-2.46,8.61-9.2,6.14-15.06h0c-2.46-5.85-9.2-8.61-15.06-6.14-5.85,2.46-8.61,9.2-6.14,15.06h0Zm70.62-31.56c0,10.22-8.28,18.5-18.5,18.5s-18.5-8.28-18.5-18.5,8.28-18.5,18.5-18.5,18.5,8.28,18.5,18.5Zm-16,53.79c2.46,5.85,9.2,8.61,15.06,6.14,5.85-2.46,8.61-9.2,6.14-15.06h0c-2.46-5.85-9.2-8.61-15.06-6.14-5.85,2.46-8.61,9.2-6.14,15.06h0Zm-15,21.21c0,10.22-8.28,18.5-18.5,18.5s-18.5-8.28-18.5-18.5,8.28-18.5,18.5-18.5,18.5,8.28,18.5,18.5Zm15,29.37c2.46,5.85,9.2,8.61,15.06,6.14,5.85-2.46,8.61-9.2,6.14-15.06h0c-2.46-5.85-9.2-8.61-15.06-6.14-5.85,2.46-8.61,9.2-6.14,15.06h0Zm15,45.63c0,10.22-8.28,18.5-18.5,18.5s-18.5-8.28-18.5-18.5,8.28-18.5,18.5-18.5,18.5,8.28,18.5,18.5Zm76,31c0,10.22-8.28,18.5-18.5,18.5s-18.5-8.28-18.5-18.5,8.28-18.5,18.5-18.5,18.5,8.28,18.5,18.5Zm-54.54-40.44c2.46,5.85,9.2,8.61,15.06,6.14,5.85-2.46,8.61-9.2,6.14-15.06h0c-2.46-5.85-9.2-8.61-15.06-6.14-5.85,2.46-8.61,9.2-6.14,15.06h0Zm129.54,9.44c0,10.22-8.28,18.5-18.5,18.5s-18.5-8.28-18.5-18.5,8.28-18.5,18.5-18.5,18.5,8.28,18.5,18.5Zm-78.77-10.07c2.46,5.85,9.2,8.61,15.06,6.14,5.85-2.46,8.61-9.2,6.14-15.06h0c-2.46-5.85-9.2-8.61-15.06-6.14-5.85,2.46-8.61,9.2-6.14,15.06h0Zm90.54-13.53c2.46,5.85,9.2,8.61,15.06,6.14,5.85-2.46,8.61-9.2,6.14-15.06h0c-2.46-5.85-9.2-8.61-15.06-6.14-5.85,2.46-8.61,9.2-6.14,15.06h0Zm19.23-51.39c0,10.22-8.28,18.5-18.5,18.5s-18.5-8.28-18.5-18.5,8.28-18.5,18.5-18.5,18.5,8.28,18.5,18.5Zm-73.84,28.74c2.46,5.85,9.2,8.61,15.06,6.14,5.85-2.46,8.61-9.2,6.14-15.06h0c-2.46-5.85-9.2-8.61-15.06-6.14-5.85,2.46-8.61,9.2-6.14,15.06h0ZM146.52,21.78c0,10.22-8.28,18.5-18.5,18.5s-18.5-8.28-18.5-18.5,8.28-18.5,18.5-18.5,18.5,8.28,18.5,18.5Zm1.65,56.14h0c6.16,2.52,13.2-.44,15.71-6.61,2.52-6.16-.44-13.2-6.61-15.71h0c-6.16-2.52-13.2.44-15.71,6.61h0c-2.52,6.16.44,13.2,6.61,15.71Zm73.35-24.14c0,10.22-8.28,18.5-18.5,18.5s-18.5-8.28-18.5-18.5,8.28-18.5,18.5-18.5,18.5,8.28,18.5,18.5Zm-51.62-30.57h0c6.16,2.52,13.2-.44,15.71-6.61,2.52-6.16-.44-13.2-6.61-15.71h0c-6.16-2.52-13.2.44-15.71,6.61h0c-2.52,6.16.44,13.2,6.61,15.71Zm14.2,90.43h0c6.16,2.52,13.2-.44,15.71-6.61,2.52-6.16-.44-13.2-6.61-15.71h0c-6.16-2.52-13.2.44-15.71,6.61h0c-2.52,6.16.44,13.2,6.61,15.71Z"/></symbol></defs><use width="255.39" height="256" xlink:href="#Logo"/></svg>